<svg width="16" height="16" viewBox="0 0 16 16" fill="none" xmlns="http://www.w3.org/2000/svg">
<path d="M8.00022 0.36084C10.0757 0.36084 10.3347 0.368479 11.149 0.406673C11.9625 0.444868 12.5163 0.572437 13.0037 0.761882C13.5079 0.955909 13.9326 1.21869 14.3573 1.64265C14.7457 2.02451 15.0463 2.48643 15.2381 2.99626C15.4267 3.48285 15.5551 4.03744 15.5933 4.85098C15.6292 5.66528 15.6391 5.92424 15.6391 7.99973C15.6391 10.0752 15.6315 10.3342 15.5933 11.1485C15.5551 11.962 15.4267 12.5158 15.2381 13.0032C15.0468 13.5133 14.7462 13.9753 14.3573 14.3568C13.9753 14.7451 13.5134 15.0457 13.0037 15.2376C12.5171 15.4263 11.9625 15.5546 11.149 15.5928C10.3347 15.6287 10.0757 15.6386 8.00022 15.6386C5.92473 15.6386 5.66577 15.631 4.85147 15.5928C4.03793 15.5546 3.48411 15.4263 2.99674 15.2376C2.48672 15.0462 2.02472 14.7456 1.64313 14.3568C1.25462 13.975 0.954053 13.5131 0.76237 13.0032C0.572925 12.5166 0.445356 11.962 0.407161 11.1485C0.371259 10.3342 0.361328 10.0752 0.361328 7.99973C0.361328 5.92424 0.368967 5.66528 0.407161 4.85098C0.445356 4.03667 0.572925 3.48362 0.76237 2.99626C0.953522 2.48612 1.25416 2.02407 1.64313 1.64265C2.02483 1.254 2.48679 0.953411 2.99674 0.761882C3.48411 0.572437 4.03716 0.444868 4.85147 0.406673C5.66577 0.37077 5.92473 0.36084 8.00022 0.36084ZM8.00022 4.18028C6.98724 4.18028 6.01575 4.58269 5.29946 5.29897C4.58318 6.01526 4.18077 6.98675 4.18077 7.99973C4.18077 9.01271 4.58318 9.9842 5.29946 10.7005C6.01575 11.4168 6.98724 11.8192 8.00022 11.8192C9.0132 11.8192 9.98469 11.4168 10.701 10.7005C11.4173 9.9842 11.8197 9.01271 11.8197 7.99973C11.8197 6.98675 11.4173 6.01526 10.701 5.29897C9.98469 4.58269 9.0132 4.18028 8.00022 4.18028V4.18028ZM12.9655 3.98931C12.9655 3.73607 12.8649 3.49319 12.6858 3.31412C12.5068 3.13505 12.2639 3.03445 12.0106 3.03445C11.7574 3.03445 11.5145 3.13505 11.3354 3.31412C11.1564 3.49319 11.0558 3.73607 11.0558 3.98931C11.0558 4.24256 11.1564 4.48543 11.3354 4.6645C11.5145 4.84357 11.7574 4.94417 12.0106 4.94417C12.2639 4.94417 12.5068 4.84357 12.6858 4.6645C12.8649 4.48543 12.9655 4.24256 12.9655 3.98931ZM8.00022 5.70806C8.60801 5.70806 9.1909 5.9495 9.62067 6.37927C10.0504 6.80905 10.2919 7.39194 10.2919 7.99973C10.2919 8.60752 10.0504 9.19041 9.62067 9.62018C9.1909 10.05 8.60801 10.2914 8.00022 10.2914C7.39243 10.2914 6.80954 10.05 6.37976 9.62018C5.94999 9.19041 5.70855 8.60752 5.70855 7.99973C5.70855 7.39194 5.94999 6.80905 6.37976 6.37927C6.80954 5.9495 7.39243 5.70806 8.00022 5.70806V5.70806Z" fill="white"/>
</svg>
