<svg width="180" height="49" viewBox="0 0 180 49" fill="none" xmlns="http://www.w3.org/2000/svg">
<path d="M27.0562 39.3165V38.9528H29.129C29.5654 38.9528 29.929 38.9043 30.22 38.8073C30.5351 38.6861 30.7655 38.4679 30.9109 38.1527C31.0564 37.8133 31.1291 37.3406 31.1291 36.7345V15.7878C31.1291 15.206 31.0564 14.7696 30.9109 14.4787C30.7897 14.1877 30.5958 13.9938 30.3291 13.8968C30.0866 13.7756 29.7957 13.715 29.4563 13.715H27.0562V13.3513H37.3113L48.9847 32.2979V15.7878C48.9847 15.2545 48.912 14.8423 48.7665 14.5514C48.6453 14.2605 48.4634 14.0544 48.221 13.9332C47.9786 13.7877 47.6876 13.715 47.3482 13.715H44.6572V13.3513H53.5668V13.715H51.0212C50.6575 13.715 50.3423 13.7877 50.0757 13.9332C49.8332 14.0786 49.6514 14.3089 49.5302 14.6241C49.409 14.9393 49.3484 15.3757 49.3484 15.9333V39.3165H46.3664L31.4928 15.1696V36.7345C31.4928 37.3406 31.5413 37.8133 31.6382 38.1527C31.7595 38.4679 31.9413 38.6861 32.1837 38.8073C32.4262 38.9043 32.7413 38.9528 33.1292 38.9528H35.8203V39.3165H27.0562Z" fill="#F1F5F3"/>
<path d="M54.579 39.3165V38.9528H56.07C56.4095 38.9528 56.7004 38.8922 56.9428 38.771C57.1853 38.6255 57.3671 38.4073 57.4883 38.1164C57.6338 37.8255 57.7065 37.4618 57.7065 37.0254V15.8242C57.7065 15.1938 57.6338 14.7332 57.4883 14.4423C57.3428 14.1514 57.1368 13.9574 56.8701 13.8604C56.6277 13.7635 56.3488 13.715 56.0337 13.715H54.579V13.3513H74.6893L74.9439 20.1881H74.5802L74.4711 19.0244C74.3499 17.7152 74.0832 16.6727 73.6711 15.8969C73.2589 15.0969 72.6407 14.5393 71.8164 14.2241C71.0164 13.8847 69.9618 13.715 68.6526 13.715H64.5069V25.5702H72.8346V25.9339H64.5069V38.9528H69.7799C71.1133 38.9528 72.1801 38.7831 72.9801 38.4437C73.8044 38.1043 74.4226 37.5467 74.8348 36.7709C75.2469 35.995 75.5015 34.9404 75.5984 33.607L75.7075 32.4797H76.0712L75.8166 39.3165H54.579Z" fill="#F1F5F3"/>
<path d="M77.1545 39.3165V38.9528H78.4637C78.9001 38.9528 79.288 38.8922 79.6274 38.771C79.9668 38.6255 80.2698 38.3709 80.5365 38.0073C80.8274 37.6194 81.082 37.086 81.3002 36.4072L88.2097 13.3513H93.4464L101.01 36.589C101.229 37.1466 101.459 37.6073 101.701 37.9709C101.944 38.3103 102.223 38.5649 102.538 38.7346C102.877 38.8801 103.241 38.9528 103.629 38.9528H103.811V39.3165H91.3735V38.9528H92.9009C93.4342 38.9528 93.7979 38.8437 93.9918 38.6255C94.1858 38.4073 94.2828 38.1164 94.2828 37.7527C94.2828 37.583 94.2585 37.4133 94.21 37.2436C94.1858 37.0497 94.1494 36.8436 94.1009 36.6254C94.0524 36.4072 94.004 36.2011 93.9555 36.0072L92.1372 29.7886H83.664L81.9911 35.3526C81.8942 35.692 81.8093 36.0072 81.7366 36.2981C81.6638 36.589 81.6032 36.8557 81.5548 37.0981C81.5063 37.3163 81.482 37.5345 81.482 37.7527C81.482 38.1649 81.579 38.4679 81.7729 38.6619C81.9911 38.8558 82.3427 38.9528 82.8275 38.9528H85.2641V39.3165H77.1545ZM83.7731 29.425H92.0281L89.4461 20.4063C89.3249 19.9699 89.1794 19.4486 89.0097 18.8425C88.84 18.2364 88.6703 17.6061 88.5006 16.9515C88.3309 16.2969 88.1612 15.6666 87.9915 15.0605C87.8945 15.4969 87.7854 15.9333 87.6642 16.3697C87.543 16.8061 87.4096 17.2546 87.2642 17.7152C87.143 18.1516 87.0096 18.588 86.8642 19.0244C86.7429 19.4608 86.6096 19.8972 86.4641 20.3335L83.7731 29.425Z" fill="#F1F5F3"/>
<path d="M106.813 39.3165V38.9528H107.904C108.389 38.9528 108.777 38.8922 109.068 38.771C109.383 38.6497 109.613 38.4194 109.759 38.08C109.929 37.7406 110.013 37.2557 110.013 36.6254V13.715H108.195C106.838 13.715 105.747 13.8847 104.922 14.2241C104.098 14.5393 103.492 15.0848 103.104 15.8606C102.716 16.6364 102.474 17.691 102.377 19.0244L102.268 20.7336H101.904L102.158 13.3513H124.778L125.033 20.7336H124.669L124.523 19.0244C124.426 17.691 124.184 16.6364 123.796 15.8606C123.408 15.0848 122.802 14.5393 121.978 14.2241C121.154 13.8847 120.063 13.715 118.705 13.715H116.923V36.6981C116.923 37.3042 117.008 37.777 117.178 38.1164C117.347 38.4558 117.59 38.6861 117.905 38.8073C118.22 38.9043 118.596 38.9528 119.032 38.9528H120.123V39.3165H106.813Z" fill="#F1F5F3"/>
<path d="M125.819 39.3165V38.9528H127.383C127.649 38.9528 127.904 38.8922 128.146 38.771C128.389 38.6497 128.583 38.4437 128.728 38.1527C128.874 37.8618 128.946 37.4739 128.946 36.989V15.7515C128.946 15.2423 128.862 14.8423 128.692 14.5514C128.546 14.2362 128.34 14.018 128.074 13.8968C127.807 13.7756 127.516 13.715 127.201 13.715H125.819V13.3513H138.947V13.715H137.492C137.08 13.715 136.753 13.7756 136.51 13.8968C136.292 14.018 136.123 14.2241 136.001 14.515C135.88 14.7817 135.82 15.1575 135.82 15.6424V38.9528H139.856C141.48 38.9528 142.778 38.7467 143.747 38.3346C144.741 37.9224 145.481 37.2436 145.966 36.2981C146.45 35.3526 146.754 34.0677 146.875 32.4433L146.947 31.0614H147.311L147.02 39.3165H125.819Z" fill="#F1F5F3"/>
<path d="M151.79 39.3165V38.9528H152.99C153.524 38.9528 153.96 38.8922 154.3 38.771C154.639 38.6255 154.894 38.3831 155.063 38.0437C155.257 37.68 155.354 37.1709 155.354 36.5163V30.2978L148.517 15.6424C148.323 15.1575 148.105 14.7817 147.863 14.515C147.645 14.2241 147.402 14.018 147.136 13.8968C146.893 13.7756 146.614 13.715 146.299 13.715H146.19V13.3513H158.918V13.715H158.482C157.536 13.715 156.845 13.8241 156.409 14.0423C155.972 14.2605 155.754 14.6241 155.754 15.1332C155.754 15.4242 155.803 15.7393 155.9 16.0787C156.021 16.4182 156.191 16.8303 156.409 17.3152L159.936 25.1702C160.154 25.5581 160.324 25.9096 160.445 26.2248C160.591 26.5157 160.724 26.8188 160.845 27.1339C160.991 27.4491 161.161 27.8128 161.355 28.2249C161.548 28.637 161.791 29.134 162.082 29.7159C162.203 29.3765 162.336 29.025 162.482 28.6613C162.627 28.2734 162.785 27.8976 162.955 27.534L167.1 17.4606C167.343 16.8788 167.512 16.406 167.609 16.0424C167.731 15.6787 167.791 15.3636 167.791 15.0969C167.791 14.5878 167.609 14.2362 167.246 14.0423C166.882 13.8241 166.312 13.715 165.537 13.715H163.9V13.3513H171.355V13.715H170.955C170.543 13.715 170.167 13.7877 169.828 13.9332C169.488 14.0544 169.173 14.2847 168.882 14.6241C168.616 14.9635 168.349 15.4484 168.082 16.0787L162.264 30.1159V36.5527C162.264 37.2072 162.349 37.7042 162.518 38.0437C162.688 38.3831 162.918 38.6255 163.209 38.771C163.5 38.8922 163.84 38.9528 164.227 38.9528H165.864V39.3165H151.79Z" fill="#F1F5F3"/>
<path fill-rule="evenodd" clip-rule="evenodd" d="M26.5366 39.8359V38.4333H29.129C29.5241 38.4333 29.8242 38.3896 30.044 38.3183C30.2215 38.2474 30.3475 38.1301 30.4362 37.9414C30.5402 37.6947 30.6096 37.3045 30.6096 36.7345V15.7878C30.6096 15.2325 30.5374 14.8933 30.4462 14.711L30.4302 14.6789C30.358 14.5057 30.2657 14.4265 30.1515 14.385L30.1234 14.3748L30.0967 14.3614C29.9423 14.2842 29.7349 14.2345 29.4563 14.2345H26.5366V12.8318H37.6014L48.4652 30.4643V15.7878C48.4652 15.2895 48.3952 14.9705 48.3018 14.7837L48.2858 14.7517C48.2043 14.556 48.1018 14.4544 47.9887 14.3978L47.9708 14.3889L47.9537 14.3786C47.8068 14.2905 47.6124 14.2345 47.3482 14.2345H44.1376V12.8318H75.1898L75.483 20.7076H74.1071L73.9538 19.0728C73.8361 17.8013 73.5802 16.8333 73.2122 16.1406L73.2092 16.1348C72.8543 15.4459 72.3332 14.9779 71.6308 14.7093L71.6134 14.7026C70.9015 14.4006 69.924 14.2345 68.6526 14.2345H65.0264V25.0507H73.3541V26.4534H65.0264V38.4333H69.7799C71.0771 38.4333 72.0663 38.267 72.7772 37.9654L72.7823 37.9632C73.4965 37.6692 74.0215 37.1943 74.3759 36.5271C74.7412 35.8395 74.9861 34.8646 75.0803 33.5693L75.0812 33.557L75.2359 31.9602H76.6104L76.3171 39.8359H54.0595V38.4333H56.07C56.3378 38.4333 56.5398 38.3873 56.6921 38.3152C56.8211 38.2332 56.9285 38.1091 57.0087 37.9166L57.0225 37.8835C57.1218 37.685 57.187 37.4074 57.187 37.0254V15.8242C57.187 15.2125 57.1129 14.8532 57.0236 14.6746C56.9282 14.4838 56.8159 14.3935 56.6925 14.3487L56.677 14.343C56.5072 14.2751 56.2961 14.2345 56.0337 14.2345H51.0212C50.7328 14.2345 50.5095 14.2907 50.3343 14.3839C50.2129 14.4595 50.101 14.5871 50.015 14.8106C49.9268 15.04 49.8678 15.4034 49.8678 15.9333V39.8359H46.0762L32.0123 17.0036V36.7345C32.0123 37.3054 32.0576 37.7156 32.1314 37.9874C32.2114 38.1852 32.3071 38.2823 32.3985 38.3334C32.5575 38.3924 32.794 38.4333 33.1292 38.4333H36.3398V39.8359H26.5366ZM32.1635 38.7969C31.9311 38.6738 31.756 38.4591 31.6382 38.1527C31.6071 38.0437 31.5809 37.9209 31.5598 37.7843C31.5151 37.4958 31.4928 37.1458 31.4928 36.7345V15.1696L46.3663 39.3164H49.3483V15.9333C49.3483 15.8838 49.3488 15.8353 49.3498 15.7878C49.3562 15.4652 49.3846 15.1864 49.435 14.9516C49.4609 14.8308 49.4926 14.7217 49.5302 14.6241C49.6514 14.3089 49.8332 14.0786 50.0756 13.9331C50.1169 13.9106 50.1594 13.8898 50.203 13.8708C50.4411 13.7669 50.7138 13.715 51.0212 13.715H53.5668V13.3513H44.6571V13.715H47.3482C47.6351 13.715 47.8873 13.7669 48.1049 13.8708C48.1447 13.8898 48.1834 13.9106 48.221 13.9331C48.4634 14.0544 48.6453 14.2604 48.7665 14.5514C48.8241 14.6666 48.8703 14.8008 48.9051 14.9541C48.9581 15.1878 48.9847 15.4657 48.9847 15.7878V32.2978L37.3113 13.3513H27.0561V13.715H29.4563C29.7705 13.715 30.0432 13.7669 30.2743 13.8708C30.2928 13.8791 30.3111 13.8878 30.329 13.8968C30.5957 13.9938 30.7897 14.1877 30.9109 14.4786C30.9334 14.5237 30.9542 14.5722 30.9732 14.6242C31.0289 14.7763 31.0696 14.958 31.0954 15.1696C31.1044 15.2431 31.1116 15.3203 31.117 15.401C31.1205 15.4537 31.1233 15.5078 31.1252 15.5635C31.1278 15.6357 31.1291 15.7105 31.1291 15.7878V36.7345C31.1291 37.1378 31.0969 37.4821 31.0325 37.7673C31.0001 37.9107 30.9596 38.0392 30.9109 38.1527C30.7695 38.4591 30.5479 38.6738 30.2462 38.7969C30.2375 38.8005 30.2288 38.8039 30.22 38.8073C29.929 38.9043 29.5654 38.9528 29.129 38.9528H27.0561V39.3164H35.8203V38.9528H33.1292C32.7413 38.9528 32.4261 38.9043 32.1837 38.8073C32.1769 38.8039 32.1702 38.8005 32.1635 38.7969ZM56.9428 38.7709C56.9248 38.7799 56.9066 38.7886 56.888 38.7969C56.6569 38.9008 56.3843 38.9528 56.07 38.9528H54.579V39.3164H75.8166L76.0712 32.4797H75.7075L75.5984 33.607C75.5691 34.0105 75.5253 34.3884 75.4671 34.7408C75.333 35.5531 75.1222 36.2298 74.8347 36.7708C74.4226 37.5466 73.8044 38.1042 72.9801 38.4437C72.6227 38.5953 72.2121 38.713 71.7482 38.7969C71.1738 38.9008 70.5177 38.9528 69.7799 38.9528H64.5069V25.9338H72.8346V25.5702H64.5069V13.715H68.6526C69.3769 13.715 70.0233 13.7669 70.5918 13.8708C71.0508 13.9547 71.459 14.0725 71.8164 14.2241C72.6407 14.5392 73.2589 15.0969 73.671 15.8969C73.9739 16.467 74.1982 17.181 74.3439 18.0391C74.3966 18.3487 74.4389 18.6772 74.4711 19.0244L74.5802 20.1881H74.9438L74.899 18.9847L74.6893 13.3513H54.579V13.715H56.0337C56.3488 13.715 56.6276 13.7634 56.8701 13.8604C56.8793 13.8638 56.8884 13.8672 56.8975 13.8708C57.1509 13.9709 57.3478 14.1614 57.4883 14.4423C57.6337 14.7332 57.7065 15.1938 57.7065 15.8242V37.0254C57.7065 37.4618 57.6337 37.8254 57.4883 38.1164C57.3671 38.4073 57.1852 38.6255 56.9428 38.7709ZM76.635 39.8359V38.4333H78.4636C78.8452 38.4333 79.1672 38.3812 79.437 38.2872C79.6691 38.1843 79.8982 37.9992 80.1176 37.7L80.1209 37.6955C80.3644 37.3709 80.5964 36.8978 80.8041 36.2529L87.823 12.8318H93.8236L101.5 36.4137C101.706 36.9379 101.917 37.3558 102.129 37.6757C102.326 37.9494 102.539 38.1407 102.764 38.2662C103.03 38.3766 103.316 38.4333 103.629 38.4333H104.33V39.8359H90.854V38.4333H92.9008C93.3991 38.4333 93.5643 38.3245 93.6035 38.2803C93.6936 38.179 93.7632 38.0216 93.7632 37.7527C93.7632 37.6332 93.7462 37.5115 93.7105 37.3863L93.6995 37.3478L93.6945 37.308C93.6725 37.1324 93.6392 36.9425 93.5938 36.7381C93.547 36.5275 93.5003 36.3292 93.4539 36.143L91.7478 30.3081H84.0502L82.4906 35.4953C82.4903 35.4964 82.49 35.4975 82.4897 35.4987C82.3944 35.8322 82.3114 36.1406 82.2406 36.4241C82.1694 36.7086 82.1107 36.9671 82.0641 37.2L82.062 37.2108C82.0215 37.3929 82.0015 37.5733 82.0015 37.7527C82.0015 38.0754 82.074 38.2202 82.13 38.2836C82.2149 38.3509 82.4125 38.4333 82.8275 38.4333H85.7835V39.8359H76.635ZM81.7729 38.6618C81.579 38.4679 81.482 38.1648 81.482 37.7527C81.482 37.6091 81.4925 37.4655 81.5135 37.322C81.5244 37.2474 81.5381 37.1727 81.5547 37.0981C81.5901 36.9214 81.6319 36.7318 81.6801 36.5293C81.6807 36.5267 81.6813 36.5242 81.6819 36.5216C81.6993 36.4487 81.7175 36.3742 81.7366 36.2981C81.8093 36.0071 81.8941 35.692 81.9911 35.3526L83.6639 29.7886H92.1372L93.9554 36.0072C94.0039 36.2011 94.0524 36.4072 94.1009 36.6254C94.1494 36.8436 94.1858 37.0496 94.21 37.2436C94.2585 37.4133 94.2827 37.583 94.2827 37.7527C94.2827 38.1164 94.1858 38.4073 93.9918 38.6255C93.9317 38.6931 93.8553 38.7503 93.7626 38.7969C93.5561 38.9008 93.2689 38.9528 92.9008 38.9528H91.3735V39.3164H103.811V38.9528H103.629C103.301 38.9528 102.99 38.9008 102.697 38.7969C102.643 38.7779 102.59 38.7571 102.538 38.7346C102.223 38.5649 101.944 38.3103 101.701 37.9709C101.459 37.6072 101.229 37.1466 101.01 36.589L93.4463 13.3513H88.2097L81.3002 36.4072C81.2328 36.6168 81.162 36.8125 81.0877 36.9943C81.0864 36.9975 81.0851 37.0007 81.0837 37.0039C81.0598 37.0624 81.0354 37.1194 81.0107 37.175C80.8651 37.5024 80.7071 37.7798 80.5365 38.0073C80.2698 38.3709 79.9668 38.6255 79.6273 38.7709C79.6022 38.7799 79.5767 38.7886 79.551 38.7969C79.2301 38.9008 78.8677 38.9528 78.4636 38.9528H77.1545V39.3164H85.264V38.9528H82.8275C82.4726 38.9528 82.1892 38.9008 81.9771 38.7969C81.8995 38.7589 81.8314 38.7138 81.7729 38.6618ZM92.0281 29.425L89.4461 20.4062C89.3249 19.9699 89.1794 19.4486 89.0097 18.8425C88.84 18.2364 88.6703 17.6061 88.5006 16.9515C88.4255 16.6621 88.3505 16.3774 88.2755 16.0974C88.2206 15.8927 88.1657 15.6904 88.1108 15.4908C88.071 15.346 88.0313 15.2026 87.9915 15.0605C87.9146 15.4066 87.83 15.7526 87.7379 16.0987C87.7138 16.189 87.6893 16.2793 87.6642 16.3697C87.543 16.806 87.4096 17.2546 87.2641 17.7152C87.1429 18.1516 87.0096 18.588 86.8641 19.0244C86.7429 19.4607 86.6096 19.8971 86.4641 20.3335L83.773 29.425H92.0281ZM84.4686 28.9054H91.339L88.9455 20.5453C88.8244 20.1094 88.6791 19.5885 88.5094 18.9826C88.3392 18.3747 88.1691 17.7429 87.9991 17.0872C87.924 17.3421 87.845 17.6008 87.7622 17.8631C87.6404 18.301 87.5067 18.7387 87.3611 19.1762C87.2393 19.6141 87.1055 20.0518 86.9598 20.4894L84.4686 28.9054ZM106.294 39.8359V38.4333H107.904C108.354 38.4333 108.665 38.3759 108.868 38.2914L108.881 38.2859C109.053 38.22 109.185 38.0992 109.281 37.8754L109.293 37.8473C109.411 37.6126 109.494 37.2219 109.494 36.6254V14.2345H108.195C106.873 14.2345 105.858 14.4008 105.12 14.7045L105.108 14.7095C104.403 14.9791 103.897 15.4355 103.569 16.0929C103.223 16.7837 102.989 17.7625 102.895 19.0599C102.895 19.0606 102.895 19.0592 102.895 19.0599L102.755 21.2531H101.366L101.657 12.8318H125.28L125.299 13.3989V12.8318H139.466V14.2345H137.492C137.132 14.2345 136.897 14.2875 136.754 14.3562C136.664 14.4087 136.566 14.51 136.481 14.7148L136.475 14.7301C136.398 14.8991 136.339 15.1891 136.339 15.6423V38.4333H139.856C141.445 38.4333 142.664 38.2306 143.544 37.8564L143.548 37.8546C144.43 37.489 145.075 36.8954 145.503 36.061C145.944 35.2022 146.237 33.9958 146.356 32.4103C146.356 32.4084 146.356 32.4065 146.357 32.4046L146.455 30.5419H147.849L147.522 39.8359H125.299V38.4333H127.383C127.567 38.4333 127.742 38.392 127.914 38.3063C128.037 38.2448 128.158 38.1315 128.264 37.9204C128.36 37.7283 128.427 37.4296 128.427 36.989V15.7514C128.427 15.2908 128.349 14.994 128.243 14.8131L128.231 14.7917L128.22 14.7691C128.117 14.545 127.992 14.4302 127.859 14.3697C127.664 14.2815 127.448 14.2345 127.201 14.2345H125.328L125.57 21.2531H124.192L124.005 19.062C123.911 17.7635 123.677 16.7841 123.331 16.0929C123.003 15.4355 122.497 14.979 121.792 14.7093L121.78 14.7046C121.042 14.4009 120.027 14.2345 118.705 14.2345H117.442V36.6981C117.442 37.2666 117.524 37.6473 117.642 37.884C117.758 38.116 117.904 38.2459 118.076 38.3163C118.326 38.3906 118.641 38.4333 119.032 38.4333H120.643V39.8359H106.294ZM117.879 38.7969C117.576 38.6732 117.342 38.4463 117.178 38.1164C117.008 37.777 116.923 37.3042 116.923 36.6981V13.715H118.705C119.456 13.715 120.126 13.7669 120.713 13.8708C121.188 13.9547 121.61 14.0725 121.978 14.2241C122.802 14.5392 123.408 15.0847 123.796 15.8605C124.085 16.4378 124.293 17.1694 124.42 18.0553C124.464 18.3601 124.499 18.6831 124.523 19.0244L124.669 20.7335H125.033L124.778 13.3513H102.158L101.904 20.7335H102.268L102.377 19.0244C102.41 18.5704 102.46 18.1488 102.526 17.7595C102.656 17.0052 102.848 16.3722 103.104 15.8605C103.492 15.0847 104.098 14.5392 104.922 14.2241C105.29 14.0725 105.712 13.9547 106.187 13.8708C106.774 13.7669 107.444 13.715 108.195 13.715H110.013V36.6254C110.013 37.2557 109.929 37.7406 109.759 38.08C109.613 38.4194 109.383 38.6497 109.068 38.7709C109.046 38.7799 109.024 38.7886 109.002 38.7969C108.719 38.9008 108.353 38.9528 107.904 38.9528H106.813V39.3164H120.123V38.9528H119.032C118.596 38.9528 118.22 38.9043 117.905 38.8073C117.896 38.8039 117.887 38.8005 117.879 38.7969ZM146.688 33.9802C146.527 34.9009 146.286 35.6735 145.966 36.2981C145.481 37.2436 144.741 37.9224 143.747 38.3346C143.264 38.5398 142.7 38.6939 142.055 38.7969C141.405 38.9008 140.672 38.9528 139.856 38.9528H135.82V15.6423C135.82 15.1575 135.88 14.7817 136.001 14.515C136.123 14.2241 136.292 14.018 136.51 13.8968C136.528 13.8878 136.547 13.8791 136.566 13.8708C136.802 13.7669 137.111 13.715 137.492 13.715H138.947V13.3513H125.819V13.715H127.201C127.493 13.715 127.764 13.7669 128.014 13.8708C128.034 13.8791 128.054 13.8878 128.074 13.8968C128.34 14.018 128.546 14.2362 128.692 14.5514C128.862 14.8423 128.946 15.2423 128.946 15.7514V36.989C128.946 37.4739 128.874 37.8618 128.728 38.1527C128.583 38.4437 128.389 38.6497 128.146 38.7709C128.128 38.7799 128.11 38.7886 128.092 38.7969C127.866 38.9008 127.63 38.9528 127.383 38.9528H125.819V39.3164H147.02L147.311 31.0614H146.947L146.875 32.4433C146.834 32.9947 146.771 33.507 146.688 33.9802ZM151.271 39.8359V38.4333H152.99C153.48 38.4333 153.847 38.378 154.109 38.2872C154.325 38.1912 154.485 38.0391 154.599 37.8113L154.605 37.7991C154.742 37.5423 154.835 37.1307 154.835 36.5163V30.4129L148.034 15.8356C147.854 15.3847 147.665 15.0696 147.478 14.8645L147.462 14.8463L147.447 14.8267C147.269 14.5889 147.091 14.4472 146.921 14.3697L146.903 14.3618C146.744 14.2821 146.547 14.2345 146.299 14.2345H145.67V12.8318H159.438V14.2345H158.482C157.555 14.2345 156.965 14.3449 156.641 14.5069C156.498 14.5786 156.414 14.661 156.363 14.7459C156.312 14.8322 156.274 14.9539 156.274 15.1332C156.274 15.3628 156.311 15.6241 156.395 15.92C156.509 16.2391 156.671 16.6323 156.883 17.102L160.401 24.9362C160.617 25.3225 160.792 25.6825 160.921 26.0147C161.068 26.3093 161.202 26.6149 161.324 26.9314C161.467 27.2416 161.634 27.599 161.825 28.0037C161.885 28.1318 161.95 28.2685 162.02 28.4137C162.162 28.0404 162.315 27.6775 162.479 27.3252L166.62 17.2629C166.858 16.6903 167.019 16.2398 167.107 15.9085L167.116 15.8778C167.226 15.546 167.272 15.2891 167.272 15.0969C167.272 14.726 167.153 14.5816 167.001 14.5006L166.978 14.4883C166.738 14.3441 166.285 14.2345 165.537 14.2345H163.381V12.8318H171.875V14.2345H170.955C170.605 14.2345 170.3 14.296 170.032 14.4107L170.003 14.4233C169.769 14.5068 169.528 14.6718 169.284 14.9538C169.059 15.2419 168.816 15.6767 168.561 16.2791C168.561 16.2798 168.562 16.2784 168.561 16.2791L162.783 30.2193V36.5526C162.783 37.1771 162.867 37.5786 162.983 37.8113C163.107 38.0601 163.258 38.2102 163.426 38.2985C163.638 38.3837 163.902 38.4333 164.227 38.4333H166.383V39.8359H151.271ZM163.209 38.7709C162.918 38.6255 162.688 38.383 162.518 38.0436C162.348 37.7042 162.264 37.2072 162.264 36.5526V30.1159L167.449 17.606L168.082 16.0787C168.133 15.9586 168.184 15.8437 168.235 15.7342C168.451 15.2688 168.666 14.8988 168.882 14.6241C169.173 14.2847 169.488 14.0544 169.828 13.9331C169.88 13.9106 169.934 13.8898 169.988 13.8708C170.284 13.7669 170.607 13.715 170.955 13.715H171.355V13.3513H163.9V13.715H165.537C166.072 13.715 166.509 13.7669 166.848 13.8708C167.001 13.9175 167.133 13.9746 167.246 14.0422C167.609 14.2362 167.791 14.5877 167.791 15.0969C167.791 15.2403 167.774 15.3978 167.739 15.5693C167.717 15.6737 167.689 15.7833 167.655 15.898C167.655 15.8991 167.654 15.9002 167.654 15.9013C167.64 15.9475 167.625 15.9945 167.609 16.0424C167.512 16.406 167.343 16.8788 167.1 17.4606L162.955 27.5339C162.785 27.8976 162.627 28.2734 162.482 28.6613C162.43 28.7917 162.379 28.9207 162.33 29.048C162.242 29.2756 162.16 29.4982 162.082 29.7159C162.042 29.6359 162.003 29.5575 161.965 29.4807C161.895 29.3399 161.828 29.2045 161.764 29.0745C161.609 28.7597 161.473 28.4765 161.354 28.2249C161.161 27.8127 160.991 27.4491 160.845 27.1339C160.724 26.8187 160.591 26.5157 160.445 26.2248C160.324 25.9096 160.154 25.5581 159.936 25.1702L156.409 17.3152C156.191 16.8303 156.021 16.4181 155.9 16.0787C155.803 15.7393 155.754 15.4241 155.754 15.1332C155.754 14.6241 155.972 14.2604 156.409 14.0422C156.544 13.9746 156.704 13.9175 156.888 13.8708C157.298 13.7669 157.829 13.715 158.482 13.715H158.918V13.3513H146.19V13.715H146.299C146.591 13.715 146.851 13.7669 147.081 13.8708C147.099 13.8791 147.118 13.8878 147.135 13.8968C147.402 14.018 147.645 14.2241 147.863 14.515C148.105 14.7817 148.323 15.1575 148.517 15.6423L155.354 30.2977V36.5163C155.354 37.1709 155.257 37.68 155.063 38.0436C154.894 38.383 154.639 38.6255 154.3 38.7709C154.274 38.7799 154.249 38.7886 154.222 38.7969C153.895 38.9008 153.484 38.9528 152.99 38.9528H151.79V39.3164H165.864V38.9528H164.227C163.868 38.9528 163.551 38.9008 163.275 38.7969C163.253 38.7886 163.231 38.7799 163.209 38.7709Z" fill="#F1F5F3"/>
<path d="M18.9651 12.645C18.2004 12.4096 14.2895 11.1148 14.0012 10.9971C13.8633 10.9448 13.763 10.6832 13.7129 10.2385C13.2992 6.91645 12.6474 3.50278 12.3591 3.12349C12.146 2.83575 11.4189 2.9273 11.2184 3.25428C11.0178 3.58125 10.0902 6.89026 9.53869 9.2968L9.17519 10.8663C2.05525 13.2205 1.66664 13.1682 4.88816 14.2014L7.73365 15.117C9.35068 15.6401 9.38827 15.6532 9.47601 16.0717C9.60137 16.6733 10.4161 19.6031 10.7295 21.0025C11.3939 24.0107 12.7477 22.1535 13.9385 16.5556L14.2143 15.2739C14.3647 15.2478 15.3174 15.1562 19.4289 14.2276C20.369 14.0053 20.0932 12.9851 18.9651 12.645ZM17.1851 13.2859C17.0848 13.3774 14.3396 14.0706 13.8006 14.0706C13.1488 14.0706 12.9984 14.3976 12.2588 17.4712C11.7699 19.4984 11.7323 19.5376 11.4566 18.3605C11.1181 16.8826 10.4287 15.1562 10.3409 14.7508C10.2657 14.3846 9.56376 14.123 6.84364 13.4429C5.47732 13.1028 5.26422 12.9851 5.77816 12.8281C6.41745 12.6319 9.48854 11.5856 9.83952 11.5856C10.178 11.5856 10.4663 11.324 10.5666 10.9317L11.5443 6.95567C11.7198 6.26248 11.7198 6.26247 12.2087 8.96982C12.7728 12.0172 12.7101 11.8864 13.6126 12.0826C14.7408 12.3311 17.2979 13.1813 17.1851 13.2859Z" fill="#E76B39"/>
<path d="M17.1851 13.2859C17.0848 13.3774 14.3396 14.0706 13.8006 14.0706C13.1488 14.0706 12.9984 14.3976 12.2588 17.4712C11.7699 19.4984 11.7323 19.5376 11.4566 18.3605C11.1181 16.8826 10.4287 15.1562 10.3409 14.7508C10.2657 14.3846 9.56376 14.123 6.84364 13.4429C5.47732 13.1028 5.26422 12.9851 5.77816 12.8281C6.41745 12.6319 9.48854 11.5856 9.83952 11.5856C10.178 11.5856 10.4663 11.324 10.5666 10.9317L11.5443 6.95567C11.7198 6.26248 11.7198 6.26247 12.2087 8.96982C12.7728 12.0172 12.7101 11.8864 13.6126 12.0826C14.7408 12.3311 17.2979 13.1813 17.1851 13.2859Z" fill="#E76B39"/>
</svg>
