<svg width="16" height="14" viewBox="0 0 16 14" fill="none" xmlns="http://www.w3.org/2000/svg">
<path d="M15.7627 2.15379C15.1795 2.41175 14.5611 2.58117 13.9279 2.65643C14.5953 2.25725 15.0949 1.62901 15.3334 0.888792C14.707 1.26157 14.0203 1.52282 13.3045 1.66414C12.8237 1.14972 12.1865 0.808556 11.4918 0.693683C10.7971 0.578811 10.0839 0.696667 9.46314 1.02893C8.84235 1.36119 8.34872 1.88924 8.059 2.53099C7.76927 3.17274 7.69969 3.89223 7.86106 4.57761C6.5908 4.51394 5.34812 4.18384 4.21371 3.60874C3.0793 3.03364 2.07852 2.2264 1.27634 1.23942C0.992396 1.72712 0.843182 2.28153 0.84398 2.84587C0.84398 3.95351 1.40773 4.93205 2.26481 5.50497C1.7576 5.489 1.26155 5.35203 0.818008 5.10546V5.14518C0.818161 5.88287 1.07343 6.5978 1.54053 7.16877C2.00763 7.73973 2.65782 8.13158 3.38085 8.27789C2.91 8.40548 2.4163 8.42429 1.9371 8.33289C2.14096 8.96786 2.53829 9.52318 3.07346 9.92109C3.60863 10.319 4.25484 10.5396 4.92162 10.552C4.25893 11.0724 3.50016 11.4572 2.68868 11.6842C1.8772 11.9112 1.02894 11.9761 0.192383 11.875C1.65271 12.8142 3.35266 13.3128 5.08891 13.3111C10.9655 13.3111 14.1792 8.44289 14.1792 4.22087C14.1792 4.08337 14.1754 3.94435 14.1693 3.80837C14.7948 3.35628 15.3346 2.79624 15.7635 2.15456L15.7627 2.15379Z" fill="white"/>
</svg>
