<svg width="12" height="11" viewBox="0 0 12 11" fill="none" xmlns="http://www.w3.org/2000/svg">
<path fill-rule="evenodd" clip-rule="evenodd" d="M0.5 4.99998C0.5 4.86737 0.552678 4.74019 0.646447 4.64643C0.740215 4.55266 0.867392 4.49998 1 4.49998H9.79333L6.14667 0.853312C6.05835 0.758529 6.01026 0.633165 6.01255 0.503631C6.01484 0.374097 6.06731 0.250506 6.15892 0.158898C6.25053 0.0672891 6.37412 0.0148145 6.50365 0.0125291C6.63319 0.0102436 6.75855 0.0583255 6.85333 0.146646L11.3533 4.64665C11.447 4.7404 11.4996 4.86748 11.4996 4.99998C11.4996 5.13248 11.447 5.25956 11.3533 5.35331L6.85333 9.85331C6.80756 9.90244 6.75236 9.94184 6.69103 9.96917C6.62969 9.99649 6.56348 10.0112 6.49635 10.0124C6.42921 10.0136 6.36253 10.0012 6.30027 9.97606C6.23801 9.95091 6.18145 9.91348 6.13397 9.866C6.0865 9.81852 6.04907 9.76197 6.02392 9.69971C5.99877 9.63745 5.98642 9.57077 5.98761 9.50363C5.98879 9.4365 6.00348 9.37029 6.03081 9.30895C6.05814 9.24762 6.09754 9.19242 6.14667 9.14664L9.79333 5.49998H1C0.867392 5.49998 0.740215 5.4473 0.646447 5.35353C0.552678 5.25976 0.5 5.13259 0.5 4.99998V4.99998Z" fill="white"/>
</svg>
